HIERARCHY
ROOT mixamorig:Hips
{
	OFFSET 0.000000 201.639420 0.000000
	CHANNELS 6 Xposition Yposition Zposition Xrotation Yrotation Zrotation
	JOINT mixamorig:Spine
	{
		OFFSET 0.006200 19.524994 -2.481800
		CHANNELS 3 Xrotation Yrotation Zrotation
		JOINT mixamorig:Spine1
		{
			OFFSET -0.000900 22.835007 -2.825400
			CHANNELS 3 Xrotation Yrotation Zrotation
			JOINT mixamorig:Spine2
			{
				OFFSET -0.020600 26.552490 -3.193300
				CHANNELS 3 Xrotation Yrotation Zrotation
				JOINT mixamorig:Neck
				{
					OFFSET -0.060000 30.701813 1.352200
					CHANNELS 3 Xrotation Yrotation Zrotation
					JOINT mixamorig:Head
					{
						OFFSET -0.087200 22.547607 3.670900
						CHANNELS 3 Xrotation Yrotation Zrotation
						JOINT mixamorig:HeadTop_End
						{
							OFFSET -0.830600 40.355194 7.893500
							CHANNELS 3 Xrotation Yrotation Zrotation
							End Site
							{
								OFFSET 0.000000 30.592346 0.000000
							}
						}
						JOINT mixamorig:RightEye
						{
							OFFSET -6.302100 18.118591 16.197100
							CHANNELS 3 Xrotation Yrotation Zrotation
							End Site
							{
								OFFSET 0.000000 30.592346 0.000000
							}
						}
						JOINT mixamorig:LeftEye
						{
							OFFSET 6.741500 18.382690 16.401899
							CHANNELS 3 Xrotation Yrotation Zrotation
							End Site
							{
								OFFSET 0.000000 30.592346 0.000000
							}
						}
					}
				}
				JOINT mixamorig:LeftShoulder
				{
					OFFSET 11.924900 18.230499 1.425400
					CHANNELS 3 Xrotation Yrotation Zrotation
					JOINT mixamorig:LeftArm
					{
						OFFSET 25.435989 -0.697632 -5.229300
						CHANNELS 3 Xrotation Yrotation Zrotation
						JOINT mixamorig:LeftForeArm
						{
							OFFSET 54.684776 0.000000 0.000000
							CHANNELS 3 Xrotation Yrotation Zrotation
							JOINT mixamorig:LeftHand
							{
								OFFSET 55.098175 0.000000 0.000000
								CHANNELS 3 Xrotation Yrotation Zrotation
								JOINT mixamorig:LeftHandMiddle1
								{
									OFFSET 23.369751 0.000000 0.000000
									CHANNELS 3 Xrotation Yrotation Zrotation
									JOINT mixamorig:LeftHandMiddle2
									{
										OFFSET 6.378677 0.000000 0.000000
										CHANNELS 3 Xrotation Yrotation Zrotation
										JOINT mixamorig:LeftHandMiddle3
										{
											OFFSET 6.148331 0.000000 0.000000
											CHANNELS 3 Xrotation Yrotation Zrotation
											JOINT mixamorig:LeftHandMiddle4
											{
												OFFSET 6.582504 0.000000 0.000000
												CHANNELS 3 Xrotation Yrotation Zrotation
												End Site
												{
													OFFSET -1.168900 6.395691 1.028606
												}
											}
										}
									}
								}
								JOINT mixamorig:LeftHandThumb1
								{
									OFFSET 7.235672 -3.848206 5.434273
									CHANNELS 3 Xrotation Yrotation Zrotation
									JOINT mixamorig:LeftHandThumb2
									{
										OFFSET 6.568451 -3.792297 3.792300
										CHANNELS 3 Xrotation Yrotation Zrotation
										JOINT mixamorig:LeftHandThumb3
										{
											OFFSET 6.063080 -3.500519 3.500518
											CHANNELS 3 Xrotation Yrotation Zrotation
											JOINT mixamorig:LeftHandThumb4
											{
												OFFSET 4.793182 -2.767334 2.767349
												CHANNELS 3 Xrotation Yrotation Zrotation
												End Site
												{
													OFFSET 0.101639 6.054260 1.275483
												}
											}
										}
									}
								}
								JOINT mixamorig:LeftHandIndex1
								{
									OFFSET 23.101074 -0.309540 4.992809
									CHANNELS 3 Xrotation Yrotation Zrotation
									JOINT mixamorig:LeftHandIndex2
									{
										OFFSET 6.226883 0.000000 0.000000
										CHANNELS 3 Xrotation Yrotation Zrotation
										JOINT mixamorig:LeftHandIndex3
										{
											OFFSET 6.094330 0.000000 0.000000
											CHANNELS 3 Xrotation Yrotation Zrotation
											JOINT mixamorig:LeftHandIndex4
											{
												OFFSET 5.482605 0.000000 0.000000
												CHANNELS 3 Xrotation Yrotation Zrotation
												End Site
												{
													OFFSET -1.427902 5.233032 0.797164
												}
											}
										}
									}
								}
								JOINT mixamorig:LeftHandRing1
								{
									OFFSET 22.299240 0.021149 -3.964172
									CHANNELS 3 Xrotation Yrotation Zrotation
									JOINT mixamorig:LeftHandRing2
									{
										OFFSET 6.321869 0.000000 0.000000
										CHANNELS 3 Xrotation Yrotation Zrotation
										JOINT mixamorig:LeftHandRing3
										{
											OFFSET 5.899796 0.000000 0.000000
											CHANNELS 3 Xrotation Yrotation Zrotation
											JOINT mixamorig:LeftHandRing4
											{
												OFFSET 6.517899 0.000000 0.000000
												CHANNELS 3 Xrotation Yrotation Zrotation
												End Site
												{
													OFFSET -1.637299 6.232208 0.980890
												}
											}
										}
									}
								}
								JOINT mixamorig:LeftHandPinky1
								{
									OFFSET 20.463791 -0.302338 -8.562233
									CHANNELS 3 Xrotation Yrotation Zrotation
									JOINT mixamorig:LeftHandPinky2
									{
										OFFSET 6.908646 0.000000 0.000000
										CHANNELS 3 Xrotation Yrotation Zrotation
										JOINT mixamorig:LeftHandPinky3
										{
											OFFSET 4.622849 0.000000 0.000000
											CHANNELS 3 Xrotation Yrotation Zrotation
											JOINT mixamorig:LeftHandPinky4
											{
												OFFSET 5.216080 0.000000 0.000000
												CHANNELS 3 Xrotation Yrotation Zrotation
												End Site
												{
													OFFSET -0.606308 5.116241 0.814926
												}
											}
										}
									}
								}
							}
						}
					}
				}
				JOINT mixamorig:RightShoulder
				{
					OFFSET -12.001300 18.284088 1.348900
					CHANNELS 3 Xrotation Yrotation Zrotation
					JOINT mixamorig:RightArm
					{
						OFFSET -25.308500 -0.751312 -5.164599
						CHANNELS 3 Xrotation Yrotation Zrotation
						JOINT mixamorig:RightForeArm
						{
							OFFSET -54.684429 0.000000 0.000000
							CHANNELS 3 Xrotation Yrotation Zrotation
							JOINT mixamorig:RightHand
							{
								OFFSET -55.150291 0.000000 0.000000
								CHANNELS 3 Xrotation Yrotation Zrotation
								JOINT mixamorig:RightHandMiddle1
								{
									OFFSET -23.317566 0.000000 0.000000
									CHANNELS 3 Xrotation Yrotation Zrotation
									JOINT mixamorig:RightHandMiddle2
									{
										OFFSET -6.378403 0.000000 0.000000
										CHANNELS 3 Xrotation Yrotation Zrotation
										JOINT mixamorig:RightHandMiddle3
										{
											OFFSET -6.148193 0.000000 0.000000
											CHANNELS 3 Xrotation Yrotation Zrotation
											JOINT mixamorig:RightHandMiddle4
											{
												OFFSET -6.583389 0.000000 0.000000
												CHANNELS 3 Xrotation Yrotation Zrotation
												End Site
												{
													OFFSET 1.171692 6.395905 1.029786
												}
											}
										}
									}
								}
								JOINT mixamorig:RightHandThumb1
								{
									OFFSET -7.190521 -3.860474 5.435846
									CHANNELS 3 Xrotation Yrotation Zrotation
									JOINT mixamorig:RightHandThumb2
									{
										OFFSET -6.567429 -3.791718 3.791708
										CHANNELS 3 Xrotation Yrotation Zrotation
										JOINT mixamorig:RightHandThumb3
										{
											OFFSET -6.062469 -3.500153 3.500166
											CHANNELS 3 Xrotation Yrotation Zrotation
											JOINT mixamorig:RightHandThumb4
											{
												OFFSET -4.792618 -2.767029 2.767022
												CHANNELS 3 Xrotation Yrotation Zrotation
												End Site
												{
													OFFSET -0.100327 6.053253 1.276754
												}
											}
										}
									}
								}
								JOINT mixamorig:RightHandIndex1
								{
									OFFSET -23.048981 -0.310791 4.992554
									CHANNELS 3 Xrotation Yrotation Zrotation
									JOINT mixamorig:RightHandIndex2
									{
										OFFSET -6.227539 0.000000 0.000000
										CHANNELS 3 Xrotation Yrotation Zrotation
										JOINT mixamorig:RightHandIndex3
										{
											OFFSET -6.095047 0.000000 0.000000
											CHANNELS 3 Xrotation Yrotation Zrotation
											JOINT mixamorig:RightHandIndex4
											{
												OFFSET -5.484772 0.000000 0.000000
												CHANNELS 3 Xrotation Yrotation Zrotation
												End Site
												{
													OFFSET 1.420593 5.237305 0.797056
												}
											}
										}
									}
								}
								JOINT mixamorig:RightHandRing1
								{
									OFFSET -22.246323 0.020569 -3.963762
									CHANNELS 3 Xrotation Yrotation Zrotation
									JOINT mixamorig:RightHandRing2
									{
										OFFSET -6.322128 0.000000 0.000000
										CHANNELS 3 Xrotation Yrotation Zrotation
										JOINT mixamorig:RightHandRing3
										{
											OFFSET -5.900024 0.000000 0.000000
											CHANNELS 3 Xrotation Yrotation Zrotation
											JOINT mixamorig:RightHandRing4
											{
												OFFSET -6.518356 0.000000 0.000000
												CHANNELS 3 Xrotation Yrotation Zrotation
												End Site
												{
													OFFSET 1.636398 6.232697 0.982186
												}
											}
										}
									}
								}
								JOINT mixamorig:RightHandPinky1
								{
									OFFSET -20.411011 -0.303314 -8.561701
									CHANNELS 3 Xrotation Yrotation Zrotation
									JOINT mixamorig:RightHandPinky2
									{
										OFFSET -6.907349 0.000000 0.000000
										CHANNELS 3 Xrotation Yrotation Zrotation
										JOINT mixamorig:RightHandPinky3
										{
											OFFSET -4.623840 0.000000 0.000000
											CHANNELS 3 Xrotation Yrotation Zrotation
											JOINT mixamorig:RightHandPinky4
											{
												OFFSET -5.218353 0.000000 0.000000
												CHANNELS 3 Xrotation Yrotation Zrotation
												End Site
												{
													OFFSET 0.602097 5.118835 0.816273
												}
											}
										}
									}
								}
							}
						}
					}
				}
			}
		}
	}
	JOINT mixamorig:LeftUpLeg
	{
		OFFSET 18.168400 -13.561905 -0.039000
		CHANNELS 3 Xrotation Yrotation Zrotation
		JOINT mixamorig:LeftLeg
		{
			OFFSET 0.577358 -80.825211 -3.695000
			CHANNELS 3 Xrotation Yrotation Zrotation
			JOINT mixamorig:LeftFoot
			{
				OFFSET -0.577356 -83.370262 -6.520700
				CHANNELS 3 Xrotation Yrotation Zrotation
				JOINT mixamorig:LeftToeBase
				{
					OFFSET 0.750401 -20.798306 25.135401
					CHANNELS 3 Xrotation Yrotation Zrotation
					JOINT mixamorig:LeftToe_End
					{
						OFFSET -0.000500 0.001200 19.917799
						CHANNELS 3 Xrotation Yrotation Zrotation
						End Site
						{
							OFFSET 0.000000 19.917805 0.000000
						}
					}
				}
			}
		}
	}
	JOINT mixamorig:RightUpLeg
	{
		OFFSET -18.162500 -13.585098 -0.041000
		CHANNELS 3 Xrotation Yrotation Zrotation
		JOINT mixamorig:RightLeg
		{
			OFFSET -0.595024 -80.945297 -3.631900
			CHANNELS 3 Xrotation Yrotation Zrotation
			JOINT mixamorig:RightFoot
			{
				OFFSET 0.595024 -83.218193 -6.561200
				CHANNELS 3 Xrotation Yrotation Zrotation
				JOINT mixamorig:RightToeBase
				{
					OFFSET -0.753601 -20.807106 25.115000
					CHANNELS 3 Xrotation Yrotation Zrotation
					JOINT mixamorig:RightToe_End
					{
						OFFSET 0.000299 0.001700 19.918200
						CHANNELS 3 Xrotation Yrotation Zrotation
						End Site
						{
							OFFSET 0.000000 19.918203 0.000000
						}
					}
				}
			}
		}
	}
}
MOTION
Frames: 4
Frame Time: 0.033333
-0.022094 202.204147 -4.162754 -5.228816 -1.349431 -1.232979 2.539884 0.627588 0.745864 5.074320 1.291545 1.314038 5.074320 1.291545 1.314037 -17.166277 -1.933932 -0.389066 31.008557 -1.455643 4.422895 0.000002 0.000000 -0.000000 0.000002 0.000000 -0.000000 0.000002 0.000000 -0.000000 12.670437 6.875537 -6.489374 -0.425391 -35.124982 -69.729920 -0.008769 -27.406069 0.001583 -18.835174 13.712098 16.962604 -1.718045 1.933399 -38.451540 -1.537260 -2.964023 -47.684293 0.000003 -0.000001 -0.000002 0.000002 0.000000 0.000001 9.589236 12.407238 3.764758 -1.979607 5.459950 0.047095 0.000005 0.000000 0.000009 -0.000002 -0.000001 -0.000001 0.876393 4.064581 -38.055683 3.112508 -0.947095 -32.774820 -0.000001 0.000004 0.000004 -0.000001 -0.000001 -0.000001 -6.542364 -1.840686 -38.717043 -5.666155 -4.278999 -66.705205 0.000005 0.000003 0.000005 -0.000000 0.000000 -0.000000 -7.479483 -1.682504 -44.487088 -5.905401 -6.144007 -71.733187 -0.000005 0.000000 0.000000 -0.000001 -0.000000 -0.000000 10.934385 23.991207 -8.021289 -16.733952 22.198950 68.470980 -0.204939 69.592750 0.122058 30.356615 -22.944984 -30.049004 -1.951258 -3.570257 59.724847 -4.389757 -18.762992 81.548538 -0.000002 -0.000004 -0.000006 0.000001 -0.000002 -0.000003 5.616733 -2.731667 6.759826 -2.254784 -4.427183 -0.357606 0.000004 0.000009 -0.000007 -0.000002 -0.000000 0.000001 -1.894832 -5.466849 -1.620407 2.789376 0.790448 65.318233 0.000001 -0.000009 -0.000001 0.000002 -0.000000 -0.000001 -5.064769 2.127429 69.952701 -8.433653 5.105000 86.887239 0.000001 -0.000003 0.000000 -0.000001 -0.000000 0.000000 -6.563662 0.531482 58.930660 -14.963584 6.360942 110.109295 -0.000001 -0.000001 -0.000000 -0.000002 0.000000 -0.000000 -3.795617 13.104826 1.322501 3.445089 0.012256 -0.146934 5.192537 -2.116311 1.663663 0.002989 -0.026200 0.062610 -0.000000 0.000002 -0.000000 -3.228638 -4.497997 -0.329387 12.255979 -0.090317 0.381390 -3.419635 -18.870535 0.398745 -0.020498 -0.187013 0.446698 0.000000 -0.000001 0.000000 
-0.031675 202.197906 -4.160881 -5.263818 -1.498606 -1.255166 2.539897 0.617280 0.745560 5.074411 1.270969 1.314199 5.074415 1.270970 1.314200 -17.150019 -1.938812 -0.381367 30.842170 -1.366706 4.289498 -0.000001 0.000000 -0.000000 -0.000001 0.000000 -0.000000 -0.000001 0.000000 -0.000000 12.668871 6.857185 -6.485504 -0.394538 -35.252232 -69.723008 -0.008663 -27.608729 0.001266 -19.013802 13.646055 17.068899 -1.719626 1.927150 -38.382818 -1.536721 -2.963442 -47.674037 0.000001 0.000000 -0.000004 -0.000001 0.000000 -0.000002 9.592451 12.416843 3.762114 -1.977161 5.464662 0.045987 0.000003 -0.000005 0.000011 0.000001 -0.000001 -0.000001 0.869293 4.049835 -37.948821 3.112496 -0.947137 -32.775909 0.000002 0.000004 0.000011 -0.000000 -0.000000 0.000000 -6.513382 -1.827473 -38.535862 -5.667330 -4.278782 -66.721065 0.000007 0.000003 0.000004 -0.000002 -0.000000 -0.000000 -7.470103 -1.670147 -44.455758 -5.905410 -6.144018 -71.733215 -0.000002 -0.000000 0.000000 -0.000001 -0.000000 0.000000 10.941649 24.072911 -8.066442 -16.880362 22.280419 68.622262 -0.203085 69.376041 0.120905 30.272686 -22.749031 -30.051606 -1.926682 -3.605925 59.426532 -4.278147 -18.768902 81.896762 -0.000005 -0.000004 -0.000007 0.000000 -0.000000 -0.000002 5.787066 -3.116492 6.373338 -2.310219 -4.392709 -0.358169 0.000003 0.000009 -0.000008 0.000002 -0.000001 0.000002 -1.891647 -5.465500 -1.612245 2.789363 0.790477 65.318260 0.000000 -0.000008 0.000000 0.000001 -0.000000 -0.000001 -4.995153 2.108385 69.653060 -8.427754 5.107119 86.819293 -0.000001 -0.000001 0.000004 -0.000001 0.000002 0.000001 -6.524514 0.519977 58.692792 -14.798279 6.520362 108.601312 0.000003 -0.000001 0.000001 0.000003 -0.000001 0.000001 -3.837324 13.129141 1.368357 3.615886 0.007744 -0.152835 5.084528 -1.994970 1.673845 0.002989 -0.026199 0.062610 -0.000000 -0.000000 0.000000 -3.206039 -4.472505 -0.314368 12.254462 -0.093088 0.378971 -3.409577 -18.751355 0.391347 -0.020498 -0.187014 0.446698 0.000000 0.000001 -0.000000 
-0.040206 202.196274 -4.159859 -5.293765 -1.645756 -1.283512 2.539171 0.601511 0.750419 5.073047 1.239696 1.324110 5.073048 1.239696 1.324110 -17.155139 -1.944984 -0.385946 30.622832 -1.319170 4.148494 -0.000000 0.000000 0.000001 -0.000000 0.000000 0.000001 -0.000000 0.000000 0.000001 12.667247 6.839768 -6.481693 -0.342335 -35.470791 -69.748751 -0.008177 -27.738645 0.001024 -19.158298 13.493957 17.146372 -1.726531 1.907492 -38.294716 -1.537174 -2.963930 -47.682698 0.000001 -0.000001 0.000000 -0.000000 -0.000001 -0.000002 9.594727 12.423652 3.760135 -1.993294 5.433564 0.053261 -0.000001 -0.000001 0.000012 0.000002 0.000001 -0.000001 0.871208 4.060310 -37.871695 3.112773 -0.946479 -32.758950 0.000003 0.000005 0.000002 -0.000001 -0.000000 0.000000 -6.507520 -1.823028 -38.507971 -5.668802 -4.278492 -66.740907 0.000007 0.000003 0.000006 -0.000000 -0.000000 -0.000000 -7.459168 -1.653801 -44.427546 -5.905414 -6.144015 -71.733242 -0.000002 0.000000 0.000001 0.000000 0.000001 0.000001 10.967881 24.120415 -8.190152 -17.064744 22.504772 68.834858 -0.200378 69.070595 0.118992 30.043226 -22.553732 -30.157628 -1.916907 -3.628078 59.128551 -4.156873 -18.774631 82.275195 0.000000 -0.000002 -0.000006 0.000004 0.000001 0.000002 6.060875 -3.779675 5.674517 -2.372297 -4.361180 -0.361973 0.000003 0.000010 -0.000009 0.000003 0.000000 0.000000 -1.885955 -5.461577 -1.607147 2.789369 0.790475 65.318226 0.000001 -0.000006 -0.000001 0.000002 0.000001 0.000001 -4.953928 2.106104 69.314174 -8.422129 5.109075 86.754720 0.000001 -0.000001 -0.000002 0.000002 -0.000001 -0.000001 -6.469535 0.500071 58.385570 -14.653587 6.653088 107.311650 -0.000004 -0.000000 0.000001 0.000004 -0.000001 0.000001 -3.868212 13.149874 1.416544 3.752042 0.002244 -0.157427 4.990728 -1.872146 1.677241 0.002989 -0.026200 0.062610 -0.000000 -0.000000 -0.000000 -3.190593 -4.427340 -0.289706 12.256451 -0.095235 0.376542 -3.399534 -18.650918 0.395051 -0.020498 -0.187014 0.446698 0.000000 0.000000 -0.000000 
-0.050670 202.196335 -4.163168 -5.319892 -1.795993 -1.313150 2.537430 0.581156 0.756418 5.069661 1.199272 1.336501 5.069662 1.199272 1.336500 -17.168748 -1.956022 -0.391042 30.370504 -1.313680 4.036308 0.000001 0.000000 0.000000 0.000001 0.000000 0.000000 0.000001 0.000000 0.000000 12.666055 6.819913 -6.479565 -0.312945 -35.689712 -69.810564 -0.006953 -27.765043 0.000958 -19.235326 13.280700 17.144711 -1.723251 1.913509 -38.248783 -1.537616 -2.964421 -47.691314 0.000002 -0.000001 -0.000003 -0.000002 -0.000000 0.000001 9.599064 12.436717 3.757314 -2.012691 5.396111 0.062033 0.000003 -0.000002 0.000008 0.000002 0.000001 -0.000001 0.865872 4.042415 -37.900508 3.113290 -0.945227 -32.726182 0.000004 0.000006 0.000001 -0.000002 0.000000 -0.000000 -6.509804 -1.826293 -38.511031 -5.668802 -4.278501 -66.740934 0.000006 0.000003 0.000005 0.000001 -0.000000 0.000001 -7.456487 -1.641857 -44.456188 -5.905407 -6.144006 -71.733317 -0.000002 -0.000000 -0.000001 -0.000001 -0.000000 0.000001 10.999331 24.190981 -8.344396 -17.237425 22.813583 69.036424 -0.197282 68.738020 0.116820 29.708707 -22.397510 -30.339840 -1.853495 -3.731939 58.154607 -3.959306 -18.782441 82.891517 -0.000001 -0.000005 -0.000005 0.000000 0.000002 -0.000002 6.446760 -4.851679 4.455265 -2.452025 -4.337388 -0.373973 0.000002 0.000010 -0.000008 0.000002 0.000000 0.000000 -1.878396 -5.455110 -1.608324 2.789375 0.790448 65.318219 -0.000001 -0.000005 -0.000000 0.000001 0.000002 -0.000002 -4.896727 2.134574 68.249504 -8.406856 5.114835 86.580639 0.000006 -0.000001 0.000002 0.000004 0.000002 -0.000002 -6.199583 0.348005 57.271239 -14.409961 6.864848 105.190753 -0.000001 0.000000 0.000001 0.000003 0.000001 -0.000000 -3.899196 13.193482 1.467241 3.877092 -0.003510 -0.161922 4.899523 -1.768870 1.684834 0.002989 -0.026200 0.062610 -0.000000 0.000000 -0.000000 -3.181159 -4.378730 -0.262458 12.258027 -0.097068 0.373505 -3.387564 -18.547886 0.406392 -0.020498 -0.187014 0.446698 -0.000000 0.000001 -0.000000 
